# xmcd
#
# Track frame offsets:
# 150
# 24253
# 41620
# 57023
# 70441
# 82888
# 96248
# 111446
# 128165
# 145639
# 160910
# 174940
# 188716
# 202481
# 214778
# 231229
# 256240
# 273583
# 286668
# 307936
#
# Disc length: 4138 seconds
#
#
# Revision: 0
# Processed by: cddbd v1.5.1PL2 Copyright (c) Steve Scherf et al.
# Submitted via: FreeRIP 2.944 
#
DISCID=1b102814
DTITLE=Various Artist - Real Country 2 CD2
DYEAR=1996
DGENRE=Country
TTITLE0=All Shes Askin
TTITLE1=When You Love Somebody
TTITLE2=Mama Knows
TTITLE3=Cowboy Up
TTITLE4=Truck Driving Man
TTITLE5=Ill think I leave it Allone
TTITLE6=The Simplest Thing
TTITLE7=Bartender Please
TTITLE8=Keep it between the Lines
TTITLE9=Just follow the roses
TTITLE10=Steady as the rain
TTITLE11=Im so lonesome I could cry
TTITLE12=My Girl
TTITLE13=Willie Lee
TTITLE14=Brahmas and Mustangs
TTITLE15=Guardian Angel
TTITLE16=Long Goodbye
TTITLE17=She had the only saddle
TTITLE18=Just say Goodbye
TTITLE19=Video Track
EXTD=
EXTT0=
EXTT1=
EXTT2=
EXTT3=
EXTT4=
EXTT5=
EXTT6=
EXTT7=
EXTT8=
EXTT9=
EXTT10=
EXTT11=
EXTT12=
EXTT13=
EXTT14=
EXTT15=
EXTT16=
EXTT17=
EXTT18=
EXTT19=
PLAYORDER=
